<svg width="515" height="185" viewBox="0 0 515 185" fill="none" xmlns="http://www.w3.org/2000/svg">
<path d="M20.4492 70.2734L21.1328 37.4609H106.582V42.0752H92.9102V135.386H106.582V140H21.1328L20.4492 107.188H25.4053L29.3359 118.979C32.2982 127.752 37.0264 132.993 43.5205 134.702C45.4574 135.158 47.5081 135.386 49.6729 135.386H68.9844V89.7559H36.1719V84.6289H68.9844V42.0752H49.6729C40.3304 42.0752 33.8932 46.5186 30.3613 55.4053C29.9056 56.4307 29.5068 57.4561 29.165 58.4814L25.4053 70.2734H20.4492Z" fill="#CCCCFF"/>
<path d="M137.688 140V135.386H124.016V93.1738H132.39L157.854 140.171L187.932 140C187.932 137.493 187.02 136.069 185.197 135.728C184.628 135.614 184.058 135.557 183.488 135.557H181.267L154.948 91.123C166.911 87.819 174.26 81.3249 176.994 71.6406C177.678 69.248 178.02 66.7985 178.02 64.292C178.02 55.861 174.26 49.082 166.74 43.9551C160.36 39.6257 152.613 37.4609 143.498 37.4609H86.418V42.0752H100.09V135.386H86.418V140H137.688ZM133.244 42.0752C142.587 42.0752 148.625 46.6895 151.359 55.918C152.157 58.8802 152.556 61.9564 152.556 65.1465C152.556 74.9447 149.593 81.7236 143.669 85.4834C141.049 87.1924 138.029 88.0469 134.611 88.0469H124.016V42.0752H133.244Z" fill="#CCCCFF"/>
<path d="M195.552 96.248L190.752 95.416V91.448H200.096C201.504 91.448 203.403 91.3627 205.792 91.192C206.347 91.1493 207.179 91.1067 208.288 91.064C209.44 91.0213 210.464 91 211.36 91C219.211 91 225.077 92.9627 228.96 96.888C232.885 100.813 234.848 106.381 234.848 113.592C234.848 118.627 233.867 123.107 231.904 127.032C229.984 130.957 227.232 134.029 223.648 136.248C220.064 138.424 215.883 139.512 211.104 139.512C209.867 139.512 207.925 139.427 205.28 139.256C202.805 139.085 201.12 139 200.224 139H190.496V135.16L195.552 134.52V96.248ZM204.832 134.712C206.283 135.096 208.309 135.288 210.912 135.288C215.179 135.203 218.528 133.496 220.96 130.168C223.392 126.797 224.608 121.763 224.608 115.064C224.608 108.707 223.413 103.8 221.024 100.344C218.635 96.8453 214.923 95.096 209.888 95.096C208.821 95.096 207.797 95.16 206.816 95.288C205.877 95.416 205.216 95.5013 204.832 95.544V134.712ZM244.24 96.248L239.12 95.416V91.448H273.232L274.064 102.2H269.583L267.472 95.864L253.648 95.288V112.504L262.544 112.312L263.568 107.064H267.664V122.552H263.568L262.544 117.048L253.648 116.856V134.904L269.136 134.136L272.847 125.944L277.648 127.288L275.984 139H239.184V135.16L244.24 134.52V96.248ZM297.633 139.704C295.329 139.704 293.26 139.512 291.425 139.128C289.59 138.744 287.542 138.232 285.281 137.592C283.788 137.165 282.785 136.931 282.273 136.888L282.849 125.048H288.033L289.441 133.304C289.996 133.901 290.977 134.435 292.385 134.904C293.836 135.373 295.478 135.608 297.313 135.608C300.172 135.608 302.305 134.989 303.713 133.752C305.164 132.472 305.889 130.701 305.889 128.44C305.889 126.947 305.462 125.667 304.609 124.6C303.756 123.491 302.582 122.509 301.089 121.656C299.596 120.76 297.548 119.736 294.945 118.584C291.404 116.963 288.46 115.043 286.113 112.824C283.809 110.563 282.657 107.512 282.657 103.672C282.657 101.283 283.276 99.128 284.513 97.208C285.75 95.2453 287.585 93.7093 290.017 92.6C292.492 91.448 295.5 90.872 299.041 90.872C301.132 90.872 302.966 91.0213 304.545 91.32C306.166 91.6187 307.916 92.024 309.793 92.536C310.902 92.8347 311.734 93.0267 312.289 93.112L311.905 104.312H306.785L305.441 96.44C305.057 96.056 304.289 95.6933 303.137 95.352C301.985 94.968 300.705 94.776 299.297 94.776C296.737 94.776 294.796 95.3733 293.473 96.568C292.193 97.72 291.553 99.2773 291.553 101.24C291.553 102.819 292.022 104.184 292.961 105.336C293.942 106.488 295.116 107.469 296.481 108.28C297.846 109.048 300.001 110.157 302.945 111.608C305.334 112.76 307.382 113.891 309.089 115C310.796 116.109 312.268 117.56 313.505 119.352C314.742 121.101 315.361 123.171 315.361 125.56C315.361 127.907 314.764 130.147 313.569 132.28C312.417 134.413 310.497 136.184 307.809 137.592C305.164 139 301.772 139.704 297.633 139.704ZM325.572 96.248L320.132 95.416V91.448H340.612V95.416L334.98 96.248V134.52L340.612 135.224V139H320.132V135.16L325.572 134.52V96.248ZM368.204 139.704C363.511 139.704 359.457 138.68 356.044 136.632C352.673 134.541 350.113 131.683 348.364 128.056C346.615 124.429 345.74 120.333 345.74 115.768C345.74 110.52 346.743 106.019 348.748 102.264C350.796 98.5093 353.676 95.672 357.388 93.752C361.1 91.832 365.431 90.872 370.38 90.872C375.031 90.872 380.257 91.5333 386.06 92.856L385.356 104.76H378.892L377.164 96.568C376.737 96.1413 375.927 95.7573 374.732 95.416C373.537 95.032 371.98 94.84 370.06 94.84C365.879 94.84 362.593 96.5467 360.204 99.96C357.815 103.331 356.62 108.216 356.62 114.616C356.62 120.888 357.644 125.965 359.692 129.848C361.74 133.688 364.855 135.608 369.036 135.608C370.743 135.608 372.343 135.395 373.836 134.968C375.329 134.541 376.46 133.987 377.228 133.304V119.544L370.444 118.904V114.616H389.9V118.904L386.508 119.48V136.44C385.612 136.483 383.991 136.845 381.644 137.528C378.913 138.253 376.567 138.787 374.604 139.128C372.684 139.512 370.551 139.704 368.204 139.704ZM398.741 96.248L393.685 95.416V91.448H408.213L427.285 120.248L430.869 127.544V96.248L425.365 95.416V91.448H441.237V95.416L436.309 96.248V139H428.565L408.661 108.728L404.181 100.28V134.52L410.645 135.16V139H393.685V135.16L398.741 134.52V96.248ZM461.508 139.704C459.204 139.704 457.135 139.512 455.3 139.128C453.465 138.744 451.417 138.232 449.156 137.592C447.663 137.165 446.66 136.931 446.148 136.888L446.724 125.048H451.908L453.316 133.304C453.871 133.901 454.852 134.435 456.26 134.904C457.711 135.373 459.353 135.608 461.188 135.608C464.047 135.608 466.18 134.989 467.588 133.752C469.039 132.472 469.764 130.701 469.764 128.44C469.764 126.947 469.337 125.667 468.484 124.6C467.631 123.491 466.457 122.509 464.964 121.656C463.471 120.76 461.423 119.736 458.82 118.584C455.279 116.963 452.335 115.043 449.988 112.824C447.684 110.563 446.532 107.512 446.532 103.672C446.532 101.283 447.151 99.128 448.388 97.208C449.625 95.2453 451.46 93.7093 453.892 92.6C456.367 91.448 459.375 90.872 462.916 90.872C465.007 90.872 466.841 91.0213 468.42 91.32C470.041 91.6187 471.791 92.024 473.668 92.536C474.777 92.8347 475.609 93.0267 476.164 93.112L475.78 104.312H470.66L469.316 96.44C468.932 96.056 468.164 95.6933 467.012 95.352C465.86 94.968 464.58 94.776 463.172 94.776C460.612 94.776 458.671 95.3733 457.348 96.568C456.068 97.72 455.428 99.2773 455.428 101.24C455.428 102.819 455.897 104.184 456.836 105.336C457.817 106.488 458.991 107.469 460.356 108.28C461.721 109.048 463.876 110.157 466.82 111.608C469.209 112.76 471.257 113.891 472.964 115C474.671 116.109 476.143 117.56 477.38 119.352C478.617 121.101 479.236 123.171 479.236 125.56C479.236 127.907 478.639 130.147 477.444 132.28C476.292 134.413 474.372 136.184 471.684 137.592C469.039 139 465.647 139.704 461.508 139.704Z" fill="#F3F6FB"/>
<path d="M194.248 54.952L191.368 54.484V52.252H210.556L211.024 58.3H208.504L207.316 54.736L199.54 54.412V64.096L204.544 63.988L205.12 61.036H207.424V69.748H205.12L204.544 66.652L199.54 66.544V76.696L208.252 76.264L210.34 71.656L213.04 72.412L212.104 79H191.404V76.84L194.248 76.48V54.952ZM219.818 54.952L217.118 54.484V52.252H222.374C223.166 52.252 224.234 52.204 225.578 52.108C225.89 52.084 226.358 52.06 226.982 52.036C227.63 52.012 228.206 52 228.71 52C233.126 52 236.426 53.104 238.61 55.312C240.818 57.52 241.922 60.652 241.922 64.708C241.922 67.54 241.37 70.06 240.266 72.268C239.186 74.476 237.638 76.204 235.622 77.452C233.606 78.676 231.254 79.288 228.566 79.288C227.87 79.288 226.778 79.24 225.29 79.144C223.898 79.048 222.95 79 222.446 79H216.974V76.84L219.818 76.48V54.952ZM225.038 76.588C225.854 76.804 226.994 76.912 228.458 76.912C230.858 76.864 232.742 75.904 234.11 74.032C235.478 72.136 236.162 69.304 236.162 65.536C236.162 61.96 235.49 59.2 234.146 57.256C232.802 55.288 230.714 54.304 227.882 54.304C227.282 54.304 226.706 54.34 226.154 54.412C225.626 54.484 225.254 54.532 225.038 54.556V76.588ZM244.289 52.252H255.089V54.484L251.957 54.952L256.493 71.188L257.321 75.184L258.149 71.188L262.001 58.012L260.993 54.952L258.617 54.484V52.252H269.885V54.484L266.429 54.952L270.929 71.188L271.901 75.508L272.657 71.188L276.761 54.952L273.521 54.484V52.252H282.197V54.484L279.893 54.952L273.053 79.18H268.301L263.333 62.368L258.581 79.18H253.901L246.485 54.988L244.289 54.484V52.252ZM293.342 52.108H298.85L307.166 76.48L309.254 76.84V79H298.634V76.84L301.334 76.48L299.93 71.8H290.606L289.202 76.516L292.118 76.84V79H282.938L282.902 76.84L285.062 76.48L293.342 52.108ZM295.826 58.192L295.178 55.384L294.494 58.228L291.29 69.28H299.21L295.826 58.192ZM312.176 76.84L315.02 76.48V54.952L312.32 54.448V52.252H317.54C317.996 52.252 318.5 52.24 319.052 52.216C319.604 52.192 320.024 52.168 320.312 52.144C321.56 52.048 322.592 52 323.408 52C325.88 52 327.86 52.252 329.348 52.756C330.836 53.26 331.916 54.028 332.588 55.06C333.26 56.092 333.596 57.448 333.596 59.128C333.596 60.784 333.152 62.32 332.264 63.736C331.376 65.152 330.092 66.124 328.412 66.652C329.372 67.06 330.224 67.804 330.968 68.884C331.712 69.964 332.504 71.368 333.344 73.096C333.944 74.272 334.4 75.124 334.712 75.652C335.048 76.156 335.372 76.444 335.684 76.516L336.872 76.876V79H330.752C330.368 79 329.96 78.616 329.528 77.848C329.12 77.056 328.58 75.82 327.908 74.14C327.116 72.172 326.432 70.636 325.856 69.532C325.28 68.428 324.668 67.744 324.02 67.48H320.312V76.48L323.624 76.84V79H312.176V76.84ZM323.624 65.284C324.992 65.284 326.06 64.792 326.828 63.808C327.596 62.824 327.98 61.348 327.98 59.38C327.98 57.628 327.596 56.332 326.828 55.492C326.084 54.652 324.788 54.232 322.94 54.232C322.268 54.232 321.692 54.268 321.212 54.34C320.756 54.388 320.456 54.412 320.312 54.412V65.212C320.6 65.26 321.296 65.284 322.4 65.284H323.624ZM342.945 54.952L340.245 54.484V52.252H345.501C346.293 52.252 347.361 52.204 348.705 52.108C349.017 52.084 349.485 52.06 350.109 52.036C350.757 52.012 351.333 52 351.837 52C356.253 52 359.553 53.104 361.737 55.312C363.945 57.52 365.049 60.652 365.049 64.708C365.049 67.54 364.497 70.06 363.393 72.268C362.313 74.476 360.765 76.204 358.749 77.452C356.733 78.676 354.381 79.288 351.693 79.288C350.997 79.288 349.905 79.24 348.417 79.144C347.025 79.048 346.077 79 345.573 79H340.101V76.84L342.945 76.48V54.952ZM348.165 76.588C348.981 76.804 350.121 76.912 351.585 76.912C353.985 76.864 355.869 75.904 357.237 74.032C358.605 72.136 359.289 69.304 359.289 65.536C359.289 61.96 358.617 59.2 357.273 57.256C355.929 55.288 353.841 54.304 351.009 54.304C350.409 54.304 349.833 54.34 349.281 54.412C348.753 54.484 348.381 54.532 348.165 54.556V76.588ZM379.991 76.84L382.835 76.48V54.952L380.135 54.448V52.252H385.355C385.811 52.252 386.315 52.24 386.867 52.216C387.419 52.192 387.839 52.168 388.127 52.144C389.375 52.048 390.407 52 391.223 52C393.695 52 395.675 52.252 397.163 52.756C398.651 53.26 399.731 54.028 400.403 55.06C401.075 56.092 401.411 57.448 401.411 59.128C401.411 60.784 400.967 62.32 400.079 63.736C399.191 65.152 397.907 66.124 396.227 66.652C397.187 67.06 398.039 67.804 398.783 68.884C399.527 69.964 400.319 71.368 401.159 73.096C401.759 74.272 402.215 75.124 402.527 75.652C402.863 76.156 403.187 76.444 403.499 76.516L404.687 76.876V79H398.567C398.183 79 397.775 78.616 397.343 77.848C396.935 77.056 396.395 75.82 395.723 74.14C394.931 72.172 394.247 70.636 393.671 69.532C393.095 68.428 392.483 67.744 391.835 67.48H388.127V76.48L391.439 76.84V79H379.991V76.84ZM391.439 65.284C392.807 65.284 393.875 64.792 394.643 63.808C395.411 62.824 395.795 61.348 395.795 59.38C395.795 57.628 395.411 56.332 394.643 55.492C393.899 54.652 392.603 54.232 390.755 54.232C390.083 54.232 389.507 54.268 389.027 54.34C388.571 54.388 388.271 54.412 388.127 54.412V65.212C388.415 65.26 389.111 65.284 390.215 65.284H391.439ZM410.76 54.952L407.88 54.484V52.252H427.068L427.536 58.3H425.016L423.828 54.736L416.052 54.412V64.096L421.056 63.988L421.632 61.036H423.936V69.748H421.632L421.056 66.652L416.052 66.544V76.696L424.764 76.264L426.852 71.656L429.552 72.412L428.616 79H407.916V76.84L410.76 76.48V54.952ZM436.33 54.952L433.45 54.484V52.252H452.638L453.106 58.3H450.586L449.398 54.736L441.622 54.412V64.096L446.626 63.988L447.202 61.036H449.506V69.748H447.202L446.626 66.652L441.622 66.544V76.696L450.334 76.264L452.422 71.656L455.122 72.412L454.186 79H433.486V76.84L436.33 76.48V54.952ZM461.9 54.952L459.2 54.484V52.252H464.456C465.248 52.252 466.316 52.204 467.66 52.108C467.972 52.084 468.44 52.06 469.064 52.036C469.712 52.012 470.288 52 470.792 52C475.208 52 478.508 53.104 480.692 55.312C482.9 57.52 484.004 60.652 484.004 64.708C484.004 67.54 483.452 70.06 482.348 72.268C481.268 74.476 479.72 76.204 477.704 77.452C475.688 78.676 473.336 79.288 470.648 79.288C469.952 79.288 468.86 79.24 467.372 79.144C465.98 79.048 465.032 79 464.528 79H459.056V76.84L461.9 76.48V54.952ZM467.12 76.588C467.936 76.804 469.076 76.912 470.54 76.912C472.94 76.864 474.824 75.904 476.192 74.032C477.56 72.136 478.244 69.304 478.244 65.536C478.244 61.96 477.572 59.2 476.228 57.256C474.884 55.288 472.796 54.304 469.964 54.304C469.364 54.304 468.788 54.34 468.236 54.412C467.708 54.484 467.336 54.532 467.12 54.556V76.588Z" fill="#F3F6FB"/>
</svg>
