<svg width="237" height="202" viewBox="0 0 237 202" fill="none" xmlns="http://www.w3.org/2000/svg">
<path d="M28.9492 77.2734L29.6328 44.4609H115.082V49.0752H101.41V142.386H115.082V147H29.6328L28.9492 114.188H33.9053L37.8359 125.979C40.7982 134.752 45.5264 139.993 52.0205 141.702C53.9574 142.158 56.0081 142.386 58.1729 142.386H77.4844V96.7559H44.6719V91.6289H77.4844V49.0752H58.1729C48.8304 49.0752 42.3932 53.5186 38.8613 62.4053C38.4056 63.4307 38.0068 64.4561 37.665 65.4814L33.9053 77.2734H28.9492Z" fill="#CCCCFF"/>
<path d="M163.688 147V142.386H150.016V100.174H158.39L183.854 147.171L213.932 147C213.932 144.493 213.02 143.069 211.197 142.728C210.628 142.614 210.058 142.557 209.488 142.557H207.267L180.948 98.123C192.911 94.819 200.26 88.3249 202.994 78.6406C203.678 76.248 204.02 73.7985 204.02 71.292C204.02 62.861 200.26 56.082 192.74 50.9551C186.36 46.6257 178.613 44.4609 169.498 44.4609H112.418V49.0752H126.09V142.386H112.418V147H163.688ZM159.244 49.0752C168.587 49.0752 174.625 53.6895 177.359 62.918C178.157 65.8802 178.556 68.9564 178.556 72.1465C178.556 81.9447 175.593 88.7236 169.669 92.4834C167.049 94.1924 164.029 95.0469 160.611 95.0469H150.016V49.0752H159.244Z" fill="#CCCCFF"/>
<path d="M111.408 138.704C111.408 138.085 111.52 137.555 111.744 137.112C111.968 136.669 112.291 136.331 112.712 136.096C113.133 135.861 113.635 135.744 114.216 135.744C114.792 135.744 115.291 135.861 115.712 136.096C116.128 136.331 116.448 136.669 116.672 137.112C116.891 137.555 117 138.085 117 138.704V140.36H111.408V138.704ZM116.536 138.704C116.536 137.925 116.333 137.333 115.928 136.928C115.517 136.517 114.947 136.312 114.216 136.312C113.48 136.312 112.907 136.517 112.496 136.928C112.08 137.333 111.872 137.925 111.872 138.704V139.8H116.536V138.704ZM111.864 124.512H113.952V122.392H114.416V124.512H116.536V122.152H117V125.072H111.4V122.152H111.864V124.512ZM117.056 109.712C117.056 110.08 116.992 110.405 116.864 110.688C116.736 110.965 116.557 111.184 116.328 111.344C116.099 111.504 115.843 111.589 115.56 111.6V111.008C115.832 110.981 116.072 110.861 116.28 110.648C116.483 110.435 116.584 110.123 116.584 109.712C116.584 109.333 116.488 109.035 116.296 108.816C116.099 108.592 115.851 108.48 115.552 108.48C115.312 108.48 115.12 108.541 114.976 108.664C114.827 108.787 114.717 108.939 114.648 109.12C114.573 109.301 114.493 109.552 114.408 109.872C114.307 110.245 114.208 110.541 114.112 110.76C114.016 110.979 113.867 111.165 113.664 111.32C113.461 111.475 113.187 111.552 112.84 111.552C112.552 111.552 112.296 111.477 112.072 111.328C111.843 111.179 111.664 110.968 111.536 110.696C111.408 110.424 111.344 110.112 111.344 109.76C111.344 109.243 111.472 108.827 111.728 108.512C111.979 108.192 112.304 108.008 112.704 107.96V108.568C112.475 108.605 112.272 108.731 112.096 108.944C111.915 109.157 111.824 109.445 111.824 109.808C111.824 110.144 111.915 110.424 112.096 110.648C112.272 110.872 112.515 110.984 112.824 110.984C113.059 110.984 113.248 110.923 113.392 110.8C113.536 110.677 113.645 110.525 113.72 110.344C113.795 110.157 113.875 109.907 113.96 109.592C114.061 109.229 114.163 108.936 114.264 108.712C114.36 108.488 114.509 108.299 114.712 108.144C114.915 107.989 115.187 107.912 115.528 107.912C115.789 107.912 116.037 107.981 116.272 108.12C116.507 108.259 116.696 108.464 116.84 108.736C116.984 109.008 117.056 109.333 117.056 109.712ZM111.408 96.63H117V97.19H111.408V96.63ZM113.04 81.3219C112.672 81.4819 112.384 81.7272 112.176 82.0579C111.963 82.3832 111.856 82.7672 111.856 83.2099C111.856 83.6259 111.952 83.9992 112.144 84.3299C112.336 84.6605 112.611 84.9219 112.968 85.1139C113.32 85.3059 113.731 85.4019 114.2 85.4019C114.669 85.4019 115.083 85.3059 115.44 85.1139C115.797 84.9219 116.072 84.6605 116.264 84.3299C116.456 83.9992 116.552 83.6259 116.552 83.2099C116.552 82.8205 116.469 82.4712 116.304 82.1619C116.133 81.8472 115.893 81.5965 115.584 81.4099C115.269 81.2179 114.904 81.1085 114.488 81.0819V83.4339H114.032V80.4899H114.44C114.931 80.5165 115.376 80.6499 115.776 80.8899C116.171 81.1299 116.483 81.4525 116.712 81.8579C116.941 82.2579 117.056 82.7085 117.056 83.2099C117.056 83.7272 116.936 84.1965 116.696 84.6179C116.451 85.0392 116.112 85.3725 115.68 85.6179C115.243 85.8579 114.749 85.9779 114.2 85.9779C113.651 85.9779 113.16 85.8579 112.728 85.6179C112.291 85.3725 111.952 85.0392 111.712 84.6179C111.467 84.1965 111.344 83.7272 111.344 83.2099C111.344 82.6125 111.493 82.0899 111.792 81.6419C112.091 81.1939 112.507 80.8685 113.04 80.6659V81.3219ZM117 65.6081V66.1681L112.296 69.2641H117V69.8241H111.408V69.2641L116.104 66.1681H111.408V65.6081H117ZM117.056 53.0037C117.056 53.3717 116.992 53.697 116.864 53.9797C116.736 54.257 116.557 54.4757 116.328 54.6357C116.099 54.7957 115.843 54.881 115.56 54.8917L115.56 54.2997C115.832 54.273 116.072 54.153 116.28 53.9397C116.483 53.7264 116.584 53.4144 116.584 53.0037C116.584 52.625 116.488 52.3264 116.296 52.1077C116.099 51.8837 115.851 51.7717 115.552 51.7717C115.312 51.7717 115.12 51.833 114.976 51.9557C114.827 52.0784 114.717 52.2304 114.648 52.4117C114.573 52.593 114.493 52.8437 114.408 53.1637C114.307 53.537 114.208 53.833 114.112 54.0517C114.016 54.2704 113.867 54.457 113.664 54.6117C113.461 54.7664 113.187 54.8437 112.84 54.8437C112.552 54.8437 112.296 54.769 112.072 54.6197C111.843 54.4704 111.664 54.2597 111.536 53.9877C111.408 53.7157 111.344 53.4037 111.344 53.0517C111.344 52.5344 111.472 52.1184 111.728 51.8037C111.979 51.4837 112.304 51.2997 112.704 51.2517V51.8597C112.475 51.897 112.272 52.0223 112.096 52.2357C111.915 52.449 111.824 52.737 111.824 53.0997C111.824 53.4357 111.915 53.7157 112.096 53.9397C112.272 54.1637 112.515 54.2757 112.824 54.2757C113.059 54.2757 113.248 54.2144 113.392 54.0917C113.536 53.969 113.645 53.817 113.72 53.6357C113.795 53.449 113.875 53.1984 113.96 52.8837C114.061 52.521 114.163 52.2277 114.264 52.0037C114.36 51.7797 114.509 51.5903 114.712 51.4357C114.915 51.281 115.187 51.2037 115.528 51.2037C115.789 51.2037 116.037 51.273 116.272 51.4117C116.507 51.5503 116.696 51.7557 116.84 52.0277C116.984 52.2997 117.056 52.625 117.056 53.0037Z" fill="white"/>
</svg>
